<svg width="28" height="28" viewBox="0 0 28 28" fill="none" xmlns="http://www.w3.org/2000/svg">
<path d="M4.66663 9.33325C4.66663 6.03392 4.66663 4.38309 5.69213 3.35875C6.71646 2.33325 8.36729 2.33325 11.6666 2.33325H16.3333C19.6326 2.33325 21.2835 2.33325 22.3078 3.35875C23.3333 4.38309 23.3333 6.03392 23.3333 9.33325V18.6666C23.3333 21.9659 23.3333 23.6168 22.3078 24.6411C21.2835 25.6666 19.6326 25.6666 16.3333 25.6666H11.6666C8.36729 25.6666 6.71646 25.6666 5.69213 24.6411C4.66663 23.6168 4.66663 21.9659 4.66663 18.6666V9.33325Z" stroke="white" stroke-width="1.5"/>
<path d="M23.2143 18.6665H9.21429C8.12929 18.6665 7.58679 18.6665 7.14113 18.7855C6.54766 18.9446 6.00654 19.2572 5.57217 19.6918C5.1378 20.1264 4.82548 20.6676 4.66663 21.2612" stroke="white" stroke-width="1.5"/>
<path d="M9.33325 8.1665H18.6666M9.33325 12.2498H15.1666" stroke="white" stroke-width="1.5" stroke-linecap="round"/>
</svg>
