<svg width="26" height="26" viewBox="0 0 26 26" fill="none" xmlns="http://www.w3.org/2000/svg">
<path d="M9.75208 7.58317C9.76508 5.22692 9.87016 3.95075 10.7022 3.11875C11.6544 2.1665 13.1862 2.1665 16.2499 2.1665H17.3332C20.398 2.1665 21.9298 2.1665 22.8821 3.11875C23.8332 4.06992 23.8332 5.60284 23.8332 8.6665V17.3332C23.8332 20.3968 23.8332 21.9298 22.8821 22.8809C21.9287 23.8332 20.398 23.8332 17.3332 23.8332H16.2499C13.1862 23.8332 11.6544 23.8332 10.7022 22.8809C9.87016 22.0489 9.76508 20.7728 9.75208 18.4165" stroke="#777A8F" stroke-width="1.5" stroke-linecap="round"/>
<path d="M16.25 13H2.16663M2.16663 13L5.95829 9.75M2.16663 13L5.95829 16.25" stroke="#777A8F" stroke-width="1.5" stroke-linecap="round" stroke-linejoin="round"/>
</svg>
