<svg width="44" height="44" viewBox="0 0 44 44" fill="none" xmlns="http://www.w3.org/2000/svg">
<path d="M8.20703 8.93739H35.707C36.0283 8.93724 36.3492 8.95762 36.6678 8.99841C36.5598 8.24024 36.2994 7.5118 35.9022 6.85701C35.5051 6.20221 34.9795 5.63462 34.357 5.18846C33.7346 4.74229 33.0283 4.4268 32.2806 4.26099C31.533 4.09519 30.7595 4.08251 30.0068 4.22372L7.39062 8.08489H7.36484C5.94522 8.35637 4.68279 9.15956 3.83539 10.3304C5.11207 9.42236 6.64034 8.93537 8.20703 8.93739ZM35.707 10.9999H8.20703C6.74883 11.0015 5.35081 11.5815 4.3197 12.6126C3.2886 13.6437 2.70862 15.0417 2.70703 16.4999V32.9999C2.70862 34.4581 3.2886 35.8561 4.3197 36.8872C5.35081 37.9183 6.74883 38.4983 8.20703 38.4999H35.707C37.1652 38.4983 38.5633 37.9183 39.5944 36.8872C40.6255 35.8561 41.2054 34.4581 41.207 32.9999V16.4999C41.2054 15.0417 40.6255 13.6437 39.5944 12.6126C38.5633 11.5815 37.1652 11.0015 35.707 10.9999ZM31.625 27.4999C31.0811 27.4999 30.5494 27.3386 30.0972 27.0364C29.6449 26.7343 29.2925 26.3048 29.0843 25.8023C28.8762 25.2998 28.8217 24.7468 28.9278 24.2134C29.0339 23.6799 29.2959 23.1899 29.6805 22.8053C30.0651 22.4208 30.5551 22.1588 31.0885 22.0527C31.6219 21.9466 32.1749 22.0011 32.6774 22.2092C33.1799 22.4174 33.6094 22.7698 33.9115 23.2221C34.2137 23.6743 34.375 24.206 34.375 24.7499C34.375 25.4792 34.0853 26.1787 33.5695 26.6944C33.0538 27.2102 32.3543 27.4999 31.625 27.4999Z" fill="#FF8B4F"/>
<path d="M2.75 22.3008V13.75C2.75 11.8877 3.78125 8.76562 7.36055 8.0893C10.3984 7.51953 13.4062 7.51953 13.4062 7.51953C13.4062 7.51953 15.3828 8.89453 13.75 8.89453C12.1172 8.89453 12.1602 11 13.75 11C15.3398 11 13.75 13.0195 13.75 13.0195L7.34766 20.2812L2.75 22.3008Z" fill="#FF8B4F"/>
</svg>
