<svg width="20" height="20" viewBox="0 0 20 20" fill="none" xmlns="http://www.w3.org/2000/svg">
<path d="M4.35006 6.84996C4.40803 6.79191 4.47688 6.74585 4.55267 6.71443C4.62845 6.68301 4.70969 6.66683 4.79173 6.66683C4.87377 6.66683 4.95501 6.68301 5.03079 6.71443C5.10658 6.74585 5.17543 6.79191 5.2334 6.84996L10.0001 11.6158L14.7667 6.84996C14.8247 6.79196 14.8936 6.74595 14.9694 6.71456C15.0452 6.68317 15.1264 6.66702 15.2084 6.66702C15.2904 6.66702 15.3716 6.68317 15.4474 6.71456C15.5232 6.74595 15.5921 6.79196 15.6501 6.84996C15.7081 6.90796 15.7541 6.97682 15.7855 7.0526C15.8169 7.12838 15.833 7.2096 15.833 7.29163C15.833 7.37365 15.8169 7.45487 15.7855 7.53066C15.7541 7.60644 15.7081 7.67529 15.6501 7.73329L10.4417 12.9416C10.3838 12.9997 10.3149 13.0457 10.2391 13.0772C10.1633 13.1086 10.0821 13.1248 10.0001 13.1248C9.91802 13.1248 9.83679 13.1086 9.761 13.0772C9.68521 13.0457 9.61637 12.9997 9.5584 12.9416L4.35006 7.73329C4.29201 7.67532 4.24596 7.60648 4.21453 7.53069C4.18311 7.45491 4.16694 7.37367 4.16694 7.29163C4.16694 7.20959 4.18311 7.12835 4.21453 7.05256C4.24596 6.97678 4.29201 6.90793 4.35006 6.84996Z" fill="black"/>
</svg>
