<svg width="44" height="44" viewBox="0 0 44 44" fill="none" xmlns="http://www.w3.org/2000/svg">
<g clip-path="url(#clip0_78_644)">
<path d="M22 23.8334C26.3927 23.8334 30.3875 25.1057 33.3263 26.8969C34.793 27.7952 36.047 28.8494 36.9527 29.9952C37.8437 31.1246 38.5 32.4739 38.5 33.9167C38.5 35.4659 37.7465 36.6869 36.6612 37.5578C35.6345 38.3827 34.2797 38.9291 32.8405 39.3104C29.9475 40.0749 26.0865 40.3334 22 40.3334C17.9135 40.3334 14.0525 40.0767 11.1595 39.3104C9.72033 38.9291 8.3655 38.3827 7.33883 37.5578C6.25167 36.6851 5.5 35.4659 5.5 33.9167C5.5 32.4739 6.15633 31.1246 7.04733 29.9952C7.953 28.8494 9.20517 27.7952 10.6737 26.8969C13.6125 25.1057 17.6092 23.8334 22 23.8334ZM22 3.66675C24.4312 3.66675 26.7627 4.63252 28.4818 6.3516C30.2009 8.07069 31.1667 10.4023 31.1667 12.8334C31.1667 15.2646 30.2009 17.5961 28.4818 19.3152C26.7627 21.0343 24.4312 22.0001 22 22.0001C19.5688 22.0001 17.2373 21.0343 15.5182 19.3152C13.7991 17.5961 12.8333 15.2646 12.8333 12.8334C12.8333 10.4023 13.7991 8.07069 15.5182 6.3516C17.2373 4.63252 19.5688 3.66675 22 3.66675Z" fill="#FF3737" fill-opacity="0.86"/>
</g>
<defs>
<clipPath id="clip0_78_644">
<rect width="44" height="44" fill="white"/>
</clipPath>
</defs>
</svg>
