<svg width="44" height="44" viewBox="0 0 44 44" fill="none" xmlns="http://www.w3.org/2000/svg">
<path d="M22 2.75V12.375C22 13.4681 22.4338 14.5164 23.2062 15.2899C23.9786 16.0633 25.0264 16.4985 26.1195 16.5H35.7445V19.3462C34.3164 19.5936 33.0001 20.2776 31.977 21.3042L20.1877 33.0935C18.8559 34.4247 17.9111 36.093 17.4543 37.9197L16.6238 41.2445H12.375C11.281 41.2445 10.2318 40.8099 9.45818 40.0363C8.6846 39.2627 8.25 38.2135 8.25 37.1195V6.875C8.25 5.78098 8.6846 4.73177 9.45818 3.95818C10.2318 3.1846 11.281 2.75 12.375 2.75H22ZM35.7445 22.165C35.0566 22.3683 34.4307 22.7408 33.924 23.2485L22.1375 35.035C21.1593 36.0138 20.4654 37.24 20.13 38.5825L19.2968 41.9127C19.2267 42.1933 19.2304 42.4873 19.3074 42.766C19.3845 43.0448 19.5323 43.2989 19.7365 43.5037C19.9407 43.7085 20.1944 43.857 20.473 43.9348C20.7515 44.0126 21.0455 44.017 21.3263 43.9477L24.6565 43.1145C25.9991 42.7792 27.2253 42.0853 28.204 41.107L39.996 29.315C40.6716 28.6409 41.103 27.7607 41.2221 26.8138C41.3413 25.8669 41.1412 24.9073 40.6537 24.0868C40.1662 23.2664 39.4189 22.6319 38.5303 22.2838C37.6417 21.9357 36.6596 21.8939 35.7445 22.165ZM24.7445 3.4375V12.375C24.7445 12.7397 24.8894 13.0894 25.1472 13.3473C25.4051 13.6051 25.7548 13.75 26.1195 13.75H35.057L24.7445 3.4375Z" fill="#41B6FF"/>
</svg>
