<svg width="44" height="44" viewBox="0 0 44 44" fill="none" xmlns="http://www.w3.org/2000/svg">
<path d="M11.0002 40.3334C9.99183 40.3334 9.12833 39.9741 8.40967 39.2554C7.691 38.5368 7.33228 37.6739 7.3335 36.6668V7.33342C7.3335 6.32508 7.69283 5.46158 8.4115 4.74292C9.13017 4.02425 9.99305 3.66553 11.0002 3.66675H33.0002C34.0085 3.66675 34.872 4.02608 35.5907 4.74475C36.3093 5.46342 36.6681 6.32631 36.6668 7.33342V36.6668C36.6668 37.6751 36.3075 38.5386 35.5888 39.2573C34.8702 39.9759 34.0073 40.3346 33.0002 40.3334H11.0002ZM20.1668 20.1667L24.7502 17.4168L29.3335 20.1667V7.33342H20.1668V20.1667Z" fill="#3CD755"/>
</svg>
