<svg width="28" height="28" viewBox="0 0 28 28" fill="none" xmlns="http://www.w3.org/2000/svg">
<path d="M19.2196 6.30938L21.6906 8.77921M20.8086 4.13354L14.1271 10.815C13.7819 11.1598 13.5464 11.599 13.4504 12.0774L12.8333 15.1667L15.9226 14.5484C16.4009 14.4527 16.8396 14.2182 17.1849 13.8729L23.8664 7.19138C24.0672 6.9906 24.2265 6.75223 24.3351 6.4899C24.4438 6.22757 24.4997 5.9464 24.4997 5.66246C24.4997 5.37851 24.4438 5.09735 24.3351 4.83501C24.2265 4.57268 24.0672 4.33432 23.8664 4.13354C23.6656 3.93276 23.4273 3.77349 23.1649 3.66483C22.9026 3.55617 22.6214 3.50024 22.3375 3.50024C22.0536 3.50024 21.7724 3.55617 21.5101 3.66483C21.2477 3.77349 21.0094 3.93276 20.8086 4.13354Z" stroke="#777A8F" stroke-width="1.5" stroke-linecap="round" stroke-linejoin="round"/>
<path d="M22.1666 17.5002V21.0002C22.1666 21.619 21.9208 22.2125 21.4832 22.6501C21.0456 23.0877 20.4521 23.3335 19.8333 23.3335H6.99996C6.38112 23.3335 5.78763 23.0877 5.35004 22.6501C4.91246 22.2125 4.66663 21.619 4.66663 21.0002V8.16683C4.66663 7.54799 4.91246 6.9545 5.35004 6.51691C5.78763 6.07933 6.38112 5.8335 6.99996 5.8335H10.5" stroke="#777A8F" stroke-width="1.5" stroke-linecap="round" stroke-linejoin="round"/>
</svg>
