<svg width="27" height="27" viewBox="0 0 27 27" fill="none" xmlns="http://www.w3.org/2000/svg">
<path fill-rule="evenodd" clip-rule="evenodd" d="M12.312 1.40625H14.688C16.7557 1.40625 18.3938 1.40625 19.6751 1.57837C20.9936 1.75613 22.0612 2.12963 22.9039 2.97113C23.7454 3.81375 24.1189 4.88138 24.2966 6.19988C24.4688 7.48238 24.4688 9.11925 24.4688 11.187V15.813C24.4688 17.8807 24.4688 19.5188 24.2966 20.8001C24.1189 22.1186 23.7454 23.1862 22.9039 24.0289C22.0612 24.8704 20.9936 25.2439 19.6751 25.4216C18.3926 25.5938 16.7557 25.5938 14.688 25.5938H12.312C10.2443 25.5938 8.60625 25.5938 7.32488 25.4216C6.00638 25.2439 4.93875 24.8704 4.09613 24.0289C3.25463 23.1862 2.88113 22.1186 2.70338 20.8001C2.53125 19.5176 2.53125 17.8807 2.53125 15.813V11.187C2.53125 9.11925 2.53125 7.48125 2.70338 6.19988C2.88113 4.88138 3.25463 3.81375 4.09613 2.97113C4.93875 2.12963 6.00638 1.75613 7.32488 1.57837C8.60738 1.40625 10.2443 1.40625 12.312 1.40625ZM7.54875 3.25125C6.417 3.40313 5.7645 3.68887 5.2875 4.16475C4.81275 4.64062 4.527 5.29312 4.37512 6.42487C4.21987 7.58137 4.21763 9.10463 4.21763 11.25V15.75C4.21763 17.8954 4.21987 19.4198 4.37512 20.5763C4.527 21.7069 4.81275 22.3594 5.28863 22.8353C5.7645 23.3111 6.417 23.5969 7.54875 23.7488C8.70525 23.904 10.2285 23.9062 12.3739 23.9062H14.6239C16.7692 23.9062 18.2936 23.904 19.4501 23.7488C20.5807 23.5969 21.2333 23.3111 21.7091 22.8353C22.185 22.3594 22.4707 21.7069 22.6226 20.5751C22.7779 19.4197 22.7801 17.8954 22.7801 15.75V11.25C22.7801 9.10463 22.7779 7.58138 22.6226 6.42375C22.4707 5.29313 22.185 4.64062 21.7091 4.16475C21.2333 3.68887 20.5808 3.40313 19.449 3.25125C18.2936 3.096 16.7692 3.09375 14.6239 3.09375H12.3739C10.2285 3.09375 8.70638 3.096 7.54875 3.25125ZM8.15625 9C8.15625 8.77622 8.24514 8.56161 8.40338 8.40338C8.56161 8.24514 8.77622 8.15625 9 8.15625H18C18.2238 8.15625 18.4384 8.24514 18.5966 8.40338C18.7549 8.56161 18.8438 8.77622 18.8438 9C18.8438 9.22378 18.7549 9.43839 18.5966 9.59662C18.4384 9.75485 18.2238 9.84375 18 9.84375H9C8.77622 9.84375 8.56161 9.75485 8.40338 9.59662C8.24514 9.43839 8.15625 9.22378 8.15625 9ZM8.15625 13.5C8.15625 13.2762 8.24514 13.0616 8.40338 12.9034C8.56161 12.7451 8.77622 12.6562 9 12.6562H18C18.2238 12.6562 18.4384 12.7451 18.5966 12.9034C18.7549 13.0616 18.8438 13.2762 18.8438 13.5C18.8438 13.7238 18.7549 13.9384 18.5966 14.0966C18.4384 14.2549 18.2238 14.3438 18 14.3438H9C8.77622 14.3438 8.56161 14.2549 8.40338 14.0966C8.24514 13.9384 8.15625 13.7238 8.15625 13.5ZM8.15625 18C8.15625 17.7762 8.24514 17.5616 8.40338 17.4034C8.56161 17.2451 8.77622 17.1562 9 17.1562H14.625C14.8488 17.1562 15.0634 17.2451 15.2216 17.4034C15.3799 17.5616 15.4688 17.7762 15.4688 18C15.4688 18.2238 15.3799 18.4384 15.2216 18.5966C15.0634 18.7549 14.8488 18.8438 14.625 18.8438H9C8.77622 18.8438 8.56161 18.7549 8.40338 18.5966C8.24514 18.4384 8.15625 18.2238 8.15625 18Z" fill="#777A8F"/>
</svg>
